<svg xmlns="http://www.w3.org/2000/svg" width="1600" height="900" viewBox="0 0 1600 900">
  <defs>
    <linearGradient id="bg" x1="0" y1="0" x2="0" y2="1">
      <stop offset="0" stop-color="#ffffff"/>
      <stop offset="1" stop-color="#f7f7ff"/>
    </linearGradient>
    <radialGradient id="lime" cx="22%" cy="18%" r="55%">
      <stop offset="0" stop-color="rgba(204,255,0,0.55)"/>
      <stop offset="1" stop-color="rgba(204,255,0,0)"/>
    </radialGradient>
    <radialGradient id="lav" cx="78%" cy="18%" r="55%">
      <stop offset="0" stop-color="rgba(184,156,255,0.55)"/>
      <stop offset="1" stop-color="rgba(184,156,255,0)"/>
    </radialGradient>
    <radialGradient id="blue" cx="70%" cy="78%" r="60%">
      <stop offset="0" stop-color="rgba(0,180,255,0.35)"/>
      <stop offset="1" stop-color="rgba(0,180,255,0)"/>
    </radialGradient>
    <radialGradient id="pink" cx="28%" cy="82%" r="60%">
      <stop offset="0" stop-color="rgba(255,102,204,0.28)"/>
      <stop offset="1" stop-color="rgba(255,102,204,0)"/>
    </radialGradient>
    <linearGradient id="title" x1="0" y1="0" x2="1" y2="1">
      <stop offset="0" stop-color="#CCFF00"/>
      <stop offset="0.45" stop-color="#00B4FF"/>
      <stop offset="1" stop-color="#B89CFF"/>
    </linearGradient>
    <filter id="shadow" x="-50%" y="-50%" width="200%" height="200%">
      <feDropShadow dx="0" dy="18" stdDeviation="24" flood-color="rgba(0,0,0,0.12)"/>
    </filter>
    <filter id="soft" x="-50%" y="-50%" width="200%" height="200%">
      <feDropShadow dx="0" dy="12" stdDeviation="18" flood-color="rgba(0,0,0,0.10)"/>
    </filter>
  </defs>

  <rect width="1600" height="900" fill="url(#bg)"/>
  <rect width="1600" height="900" fill="url(#lime)"/>
  <rect width="1600" height="900" fill="url(#lav)"/>
  <rect width="1600" height="900" fill="url(#blue)"/>
  <rect width="1600" height="900" fill="url(#pink)"/>

  <g opacity="0.55">
    <path d="M220 840 C520 660, 740 660, 980 760 C1210 855, 1370 870, 1550 820" fill="none" stroke="rgba(0,180,255,0.45)" stroke-width="22" stroke-linecap="round"/>
    <path d="M120 160 C420 40, 720 70, 980 190 C1220 300, 1400 330, 1520 270" fill="none" stroke="rgba(184,156,255,0.45)" stroke-width="18" stroke-linecap="round"/>
  </g>

  <g filter="url(#shadow)">
    <rect x="120" y="150" width="1360" height="600" rx="42" fill="rgba(255,255,255,0.72)" stroke="rgba(0,0,0,0.06)"/>
  </g>

  <g filter="url(#soft)">
    <text x="180" y="310" font-family="ui-sans-serif, system-ui, -apple-system, Segoe UI, Inter" font-size="96" font-weight="900" fill="url(#title)" letter-spacing="-0.03em">
      OlympiVerse
    </text>
    <text x="184" y="372" font-family="ui-sans-serif, system-ui, -apple-system, Segoe UI, Inter" font-size="26" font-weight="800" fill="rgba(45,45,45,0.72)">
      Predict. Play. Connect.
    </text>
  </g>

  <g transform="translate(180 430)" filter="url(#soft)">
    <rect x="0" y="0" width="520" height="220" rx="28" fill="rgba(255,255,255,0.9)" stroke="rgba(184,156,255,0.35)"/>
    <rect x="24" y="28" width="110" height="40" rx="20" fill="rgba(204,255,0,0.35)"/>
    <rect x="146" y="28" width="120" height="40" rx="20" fill="rgba(184,156,255,0.35)"/>
    <rect x="278" y="28" width="120" height="40" rx="20" fill="rgba(0,180,255,0.25)"/>
    <rect x="24" y="90" width="450" height="18" rx="9" fill="rgba(45,45,45,0.12)"/>
    <rect x="24" y="122" width="400" height="18" rx="9" fill="rgba(45,45,45,0.10)"/>
    <rect x="24" y="154" width="360" height="18" rx="9" fill="rgba(45,45,45,0.10)"/>
    <rect x="24" y="184" width="230" height="18" rx="9" fill="rgba(45,45,45,0.10)"/>
  </g>

  <g transform="translate(760 410)" filter="url(#soft)">
    <rect x="0" y="0" width="660" height="280" rx="34" fill="rgba(255,255,255,0.86)" stroke="rgba(0,180,255,0.28)"/>
    <rect x="40" y="40" width="250" height="60" rx="30" fill="rgba(0,180,255,0.18)"/>
    <rect x="310" y="40" width="310" height="60" rx="30" fill="rgba(255,102,204,0.14)"/>
    <rect x="40" y="122" width="580" height="22" rx="11" fill="rgba(45,45,45,0.10)"/>
    <rect x="40" y="162" width="520" height="22" rx="11" fill="rgba(45,45,45,0.10)"/>
    <rect x="40" y="202" width="440" height="22" rx="11" fill="rgba(45,45,45,0.10)"/>
  </g>

  <g opacity="0.9">
    <circle cx="1380" cy="210" r="7" fill="#CCFF00"/>
    <circle cx="1420" cy="250" r="6" fill="#00B4FF"/>
    <circle cx="1340" cy="260" r="6" fill="#FF66CC"/>
    <circle cx="1260" cy="235" r="5" fill="#B89CFF"/>
    <rect x="1320" y="316" width="12" height="12" rx="3" fill="#B89CFF" transform="rotate(20 1326 322)"/>
    <rect x="1400" y="340" width="12" height="12" rx="3" fill="#00B4FF" transform="rotate(-16 1406 346)"/>
  </g>
</svg>
